<?xml version="1.0" encoding="utf-8" standalone="no"?>
<!DOCTYPE svg PUBLIC "-//W3C//DTD SVG 1.1//EN"
  "http://www.w3.org/Graphics/SVG/1.1/DTD/svg11.dtd">
<svg xmlns:xlink="http://www.w3.org/1999/xlink" width="201.6pt" height="129.6pt" viewBox="0 0 201.6 129.6" xmlns="http://www.w3.org/2000/svg" version="1.1">
 <metadata>
  <rdf:RDF xmlns:dc="http://purl.org/dc/elements/1.1/" xmlns:cc="http://creativecommons.org/ns#" xmlns:rdf="http://www.w3.org/1999/02/22-rdf-syntax-ns#">
   <cc:Work>
    <dc:type rdf:resource="http://purl.org/dc/dcmitype/StillImage"/>
    <dc:date>2025-08-03T23:35:42.407232</dc:date>
    <dc:format>image/svg+xml</dc:format>
    <dc:creator>
     <cc:Agent>
      <dc:title>Matplotlib v3.10.5, https://matplotlib.org/</dc:title>
     </cc:Agent>
    </dc:creator>
   </cc:Work>
  </rdf:RDF>
 </metadata>
 <defs>
  <style type="text/css">*{stroke-linejoin: round; stroke-linecap: butt}</style>
 </defs>
 <g id="figure_1">
  <g id="patch_1">
   <path d="M 0 129.6 
L 201.6 129.6 
L 201.6 0 
L 0 0 
z
" style="fill: #ffffff"/>
  </g>
  <g id="axes_1">
   <g id="patch_2">
    <path d="M 16.99 112.52 
L 178.4768 112.52 
L 178.4768 0 
L 16.99 0 
z
" style="fill: #ffffff"/>
   </g>
   <g id="patch_3">
    <path d="M 21.015218 107.405455 
L 123.306127 107.405455 
L 123.306127 5.114545 
L 21.015218 5.114545 
z
" clip-path="url(#p206f25b1d3)" style="fill: #4169e1; stroke: #4169e1; stroke-linejoin: miter"/>
   </g>
   <g id="patch_4">
    <path d="M 72.160673 81.832727 
L 72.109187 80.210805 
L 71.954935 78.595413 
L 71.69854 76.993057 
L 71.341034 75.410188 
L 70.883855 73.853181 
L 70.328845 72.328305 
L 69.67824 70.841699 
L 68.934657 69.399351 
L 68.101093 68.007067 
L 67.180902 66.670455 
L 66.177791 65.394895 
L 65.095799 64.185525 
L 63.939282 63.047214 
L 62.712897 61.984545 
L 61.421583 61.001799 
L 60.070539 60.102931 
L 58.665205 59.291561 
L 57.21124 58.570956 
L 55.714499 57.944019 
L 54.181009 57.413273 
L 52.616944 56.980855 
L 51.028603 56.648507 
L 49.422381 56.417567 
L 47.804745 56.288965 
L 46.182209 56.263219 
L 44.561308 56.340432 
L 42.948567 56.520293 
L 41.35048 56.802079 
L 39.773483 57.184655 
L 38.223926 57.666479 
L 36.708047 58.245612 
L 35.231951 58.919723 
L 33.801582 59.686096 
L 32.422699 60.541645 
L 31.100854 61.482927 
L 29.841371 62.50615 
L 28.649319 63.607194 
L 27.529501 64.781625 
L 26.486424 66.024716 
L 25.524289 67.33146 
L 24.64697 68.696595 
L 23.857999 70.114625 
L 23.160554 71.57984 
L 22.557442 73.086339 
L 22.051093 74.628057 
L 21.643546 76.198786 
L 21.33644 77.792201 
L 21.131013 79.401885 
L 21.028093 81.021357 
L 21.028093 82.644097 
L 21.131013 84.26357 
L 21.33644 85.873254 
L 21.643546 87.466668 
L 22.051093 89.037397 
L 22.557442 90.579115 
L 23.160554 92.085615 
L 23.857999 93.550829 
L 24.64697 94.968859 
L 25.524289 96.333995 
L 26.486424 97.640738 
L 27.529501 98.883829 
L 28.649319 100.058261 
L 29.841371 101.159305 
L 31.100854 102.182528 
L 32.422699 103.123809 
L 33.801582 103.979359 
L 35.231951 104.745732 
L 36.708047 105.419842 
L 38.223926 105.998975 
L 39.773483 106.4808 
L 41.35048 106.863375 
L 42.948567 107.145161 
L 44.561308 107.325023 
L 46.182209 107.402236 
L 47.804745 107.376489 
L 49.422381 107.247887 
L 51.028603 107.016947 
L 52.616944 106.684599 
L 54.181009 106.252182 
L 55.714499 105.721436 
L 57.21124 105.094498 
L 58.665205 104.373894 
L 60.070539 103.562524 
L 61.421583 102.663656 
L 62.712897 101.680909 
L 63.939282 100.618241 
L 65.095799 99.47993 
L 66.177791 98.27056 
L 67.180902 96.995 
L 68.101093 95.658387 
L 68.934657 94.266104 
L 69.67824 92.823755 
L 70.328845 91.33715 
L 70.883855 89.812273 
L 71.341034 88.255266 
L 71.69854 86.672398 
L 71.954935 85.070042 
L 72.109187 83.45465 
L 72.160673 81.832727 
z
" clip-path="url(#p206f25b1d3)" style="fill: #40e0d0; stroke: #40e0d0; stroke-linejoin: miter"/>
   </g>
   <g id="patch_5">
    <path d="M 72.160673 30.687273 
L 72.109187 29.06535 
L 71.954935 27.449958 
L 71.69854 25.847602 
L 71.341034 24.264734 
L 70.883855 22.707727 
L 70.328845 21.18285 
L 69.67824 19.696245 
L 68.934657 18.253896 
L 68.101093 16.861613 
L 67.180902 15.525 
L 66.177791 14.24944 
L 65.095799 13.04007 
L 63.939282 11.901759 
L 62.712897 10.839091 
L 61.421583 9.856344 
L 60.070539 8.957476 
L 58.665205 8.146106 
L 57.21124 7.425502 
L 55.714499 6.798564 
L 54.181009 6.267818 
L 52.616944 5.835401 
L 51.028603 5.503053 
L 49.422381 5.272113 
L 47.804745 5.143511 
L 46.182209 5.117764 
L 44.561308 5.194977 
L 42.948567 5.374839 
L 41.35048 5.656625 
L 39.773483 6.0392 
L 38.223926 6.521025 
L 36.708047 7.100158 
L 35.231951 7.774268 
L 33.801582 8.540641 
L 32.422699 9.396191 
L 31.100854 10.337472 
L 29.841371 11.360695 
L 28.649319 12.461739 
L 27.529501 13.636171 
L 26.486424 14.879262 
L 25.524289 16.186005 
L 24.64697 17.551141 
L 23.857999 18.969171 
L 23.160554 20.434385 
L 22.557442 21.940885 
L 22.051093 23.482603 
L 21.643546 25.053332 
L 21.33644 26.646746 
L 21.131013 28.25643 
L 21.028093 29.875903 
L 21.028093 31.498643 
L 21.131013 33.118115 
L 21.33644 34.727799 
L 21.643546 36.321214 
L 22.051093 37.891943 
L 22.557442 39.433661 
L 23.160554 40.94016 
L 23.857999 42.405375 
L 24.64697 43.823405 
L 25.524289 45.18854 
L 26.486424 46.495284 
L 27.529501 47.738375 
L 28.649319 48.912806 
L 29.841371 50.01385 
L 31.100854 51.037073 
L 32.422699 51.978355 
L 33.801582 52.833904 
L 35.231951 53.600277 
L 36.708047 54.274388 
L 38.223926 54.853521 
L 39.773483 55.335345 
L 41.35048 55.717921 
L 42.948567 55.999707 
L 44.561308 56.179568 
L 46.182209 56.256781 
L 47.804745 56.231035 
L 49.422381 56.102433 
L 51.028603 55.871493 
L 52.616944 55.539145 
L 54.181009 55.106727 
L 55.714499 54.575981 
L 57.21124 53.949044 
L 58.665205 53.228439 
L 60.070539 52.417069 
L 61.421583 51.518201 
L 62.712897 50.535455 
L 63.939282 49.472786 
L 65.095799 48.334475 
L 66.177791 47.125105 
L 67.180902 45.849545 
L 68.101093 44.512933 
L 68.934657 43.120649 
L 69.67824 41.678301 
L 70.328845 40.191695 
L 70.883855 38.666819 
L 71.341034 37.109812 
L 71.69854 35.526943 
L 71.954935 33.924587 
L 72.109187 32.309195 
L 72.160673 30.687273 
z
" clip-path="url(#p206f25b1d3)" style="fill: #40e0d0; stroke: #40e0d0; stroke-linejoin: miter"/>
   </g>
   <g id="patch_6">
    <path d="M 123.306127 30.687273 
L 123.254641 29.06535 
L 123.10039 27.449958 
L 122.843995 25.847602 
L 122.486488 24.264734 
L 122.02931 22.707727 
L 121.4743 21.18285 
L 120.823694 19.696245 
L 120.080112 18.253896 
L 119.246547 16.861613 
L 118.326357 15.525 
L 117.323246 14.24944 
L 116.241253 13.04007 
L 115.084736 11.901759 
L 113.858351 10.839091 
L 112.567037 9.856344 
L 111.215993 8.957476 
L 109.810659 8.146106 
L 108.356695 7.425502 
L 106.859954 6.798564 
L 105.326464 6.267818 
L 103.762399 5.835401 
L 102.174057 5.503053 
L 100.567835 5.272113 
L 98.950199 5.143511 
L 97.327664 5.117764 
L 95.706762 5.194977 
L 94.094021 5.374839 
L 92.495935 5.656625 
L 90.918938 6.0392 
L 89.36938 6.521025 
L 87.853501 7.100158 
L 86.377406 7.774268 
L 84.947036 8.540641 
L 83.568153 9.396191 
L 82.246309 10.337472 
L 80.986825 11.360695 
L 79.794774 12.461739 
L 78.674955 13.636171 
L 77.631879 14.879262 
L 76.669743 16.186005 
L 75.792424 17.551141 
L 75.003453 18.969171 
L 74.306008 20.434385 
L 73.702897 21.940885 
L 73.196548 23.482603 
L 72.789 25.053332 
L 72.481895 26.646746 
L 72.276468 28.25643 
L 72.173548 29.875903 
L 72.173548 31.498643 
L 72.276468 33.118115 
L 72.481895 34.727799 
L 72.789 36.321214 
L 73.196548 37.891943 
L 73.702897 39.433661 
L 74.306008 40.94016 
L 75.003453 42.405375 
L 75.792424 43.823405 
L 76.669743 45.18854 
L 77.631879 46.495284 
L 78.674955 47.738375 
L 79.794774 48.912806 
L 80.986825 50.01385 
L 82.246309 51.037073 
L 83.568153 51.978355 
L 84.947036 52.833904 
L 86.377406 53.600277 
L 87.853501 54.274388 
L 89.36938 54.853521 
L 90.918938 55.335345 
L 92.495935 55.717921 
L 94.094021 55.999707 
L 95.706762 56.179568 
L 97.327664 56.256781 
L 98.950199 56.231035 
L 100.567835 56.102433 
L 102.174057 55.871493 
L 103.762399 55.539145 
L 105.326464 55.106727 
L 106.859954 54.575981 
L 108.356695 53.949044 
L 109.810659 53.228439 
L 111.215993 52.417069 
L 112.567037 51.518201 
L 113.858351 50.535455 
L 115.084736 49.472786 
L 116.241253 48.334475 
L 117.323246 47.125105 
L 118.326357 45.849545 
L 119.246547 44.512933 
L 120.080112 43.120649 
L 120.823694 41.678301 
L 121.4743 40.191695 
L 122.02931 38.666819 
L 122.486488 37.109812 
L 122.843995 35.526943 
L 123.10039 33.924587 
L 123.254641 32.309195 
L 123.306127 30.687273 
z
" clip-path="url(#p206f25b1d3)" style="fill: #40e0d0; stroke: #40e0d0; stroke-linejoin: miter"/>
   </g>
   <g id="patch_7">
    <path d="M 123.306127 81.832727 
L 123.254641 80.210805 
L 123.10039 78.595413 
L 122.843995 76.993057 
L 122.486488 75.410188 
L 122.02931 73.853181 
L 121.4743 72.328305 
L 120.823694 70.841699 
L 120.080112 69.399351 
L 119.246547 68.007067 
L 118.326357 66.670455 
L 117.323246 65.394895 
L 116.241253 64.185525 
L 115.084736 63.047214 
L 113.858351 61.984545 
L 112.567037 61.001799 
L 111.215993 60.102931 
L 109.810659 59.291561 
L 108.356695 58.570956 
L 106.859954 57.944019 
L 105.326464 57.413273 
L 103.762399 56.980855 
L 102.174057 56.648507 
L 100.567835 56.417567 
L 98.950199 56.288965 
L 97.327664 56.263219 
L 95.706762 56.340432 
L 94.094021 56.520293 
L 92.495935 56.802079 
L 90.918938 57.184655 
L 89.36938 57.666479 
L 87.853501 58.245612 
L 86.377406 58.919723 
L 84.947036 59.686096 
L 83.568153 60.541645 
L 82.246309 61.482927 
L 80.986825 62.50615 
L 79.794774 63.607194 
L 78.674955 64.781625 
L 77.631879 66.024716 
L 76.669743 67.33146 
L 75.792424 68.696595 
L 75.003453 70.114625 
L 74.306008 71.57984 
L 73.702897 73.086339 
L 73.196548 74.628057 
L 72.789 76.198786 
L 72.481895 77.792201 
L 72.276468 79.401885 
L 72.173548 81.021357 
L 72.173548 82.644097 
L 72.276468 84.26357 
L 72.481895 85.873254 
L 72.789 87.466668 
L 73.196548 89.037397 
L 73.702897 90.579115 
L 74.306008 92.085615 
L 75.003453 93.550829 
L 75.792424 94.968859 
L 76.669743 96.333995 
L 77.631879 97.640738 
L 78.674955 98.883829 
L 79.794774 100.058261 
L 80.986825 101.159305 
L 82.246309 102.182528 
L 83.568153 103.123809 
L 84.947036 103.979359 
L 86.377406 104.745732 
L 87.853501 105.419842 
L 89.36938 105.998975 
L 90.918938 106.4808 
L 92.495935 106.863375 
L 94.094021 107.145161 
L 95.706762 107.325023 
L 97.327664 107.402236 
L 98.950199 107.376489 
L 100.567835 107.247887 
L 102.174057 107.016947 
L 103.762399 106.684599 
L 105.326464 106.252182 
L 106.859954 105.721436 
L 108.356695 105.094498 
L 109.810659 104.373894 
L 111.215993 103.562524 
L 112.567037 102.663656 
L 113.858351 101.680909 
L 115.084736 100.618241 
L 116.241253 99.47993 
L 117.323246 98.27056 
L 118.326357 96.995 
L 119.246547 95.658387 
L 120.080112 94.266104 
L 120.823694 92.823755 
L 121.4743 91.33715 
L 122.02931 89.812273 
L 122.486488 88.255266 
L 122.843995 86.672398 
L 123.10039 85.070042 
L 123.254641 83.45465 
L 123.306127 81.832727 
z
" clip-path="url(#p206f25b1d3)" style="fill: #40e0d0; stroke: #40e0d0; stroke-linejoin: miter"/>
   </g>
   <g id="patch_8">
    <path d="M 21.015218 81.832727 
L 21.015218 30.687273 
L 123.306127 30.687273 
L 123.306127 81.832727 
z
" clip-path="url(#p206f25b1d3)" style="fill: #40e0d0; stroke: #40e0d0; stroke-linejoin: miter"/>
   </g>
   <g id="patch_9">
    <path d="M 46.587945 107.405455 
L 46.587945 5.114545 
L 97.7334 5.114545 
L 97.7334 107.405455 
z
" clip-path="url(#p206f25b1d3)" style="fill: #40e0d0; stroke: #40e0d0; stroke-linejoin: miter"/>
   </g>
   <g id="patch_10">
    <path d="M 46.587945 81.832727 
L 97.7334 81.832727 
L 97.7334 30.687273 
L 46.587945 30.687273 
z
" clip-path="url(#p206f25b1d3)" style="fill: #1e90ff; stroke: #1e90ff; stroke-linejoin: miter"/>
   </g>
   <g id="patch_11">
    <path d="M 97.7334 56.26 
L 97.681914 54.638077 
L 97.527663 53.022686 
L 97.271268 51.42033 
L 96.913761 49.837461 
L 96.456582 48.280454 
L 95.901573 46.755577 
L 95.250967 45.268972 
L 94.507385 43.826623 
L 93.67382 42.43434 
L 92.753629 41.097727 
L 91.750518 39.822168 
L 90.668526 38.612798 
L 89.512009 37.474487 
L 88.285624 36.411818 
L 86.99431 35.429071 
L 85.643266 34.530203 
L 84.237932 33.718834 
L 82.783968 32.998229 
L 81.287227 32.371292 
L 79.753737 31.840545 
L 78.189672 31.408128 
L 76.60133 31.07578 
L 74.995108 30.84484 
L 73.377472 30.716238 
L 71.754937 30.690492 
L 70.134035 30.767705 
L 68.521294 30.947566 
L 66.923208 31.229352 
L 65.346211 31.611927 
L 63.796653 32.093752 
L 62.280774 32.672885 
L 60.804678 33.346996 
L 59.374309 34.113369 
L 57.995426 34.968918 
L 56.673581 35.910199 
L 55.414098 36.933422 
L 54.222047 38.034466 
L 53.102228 39.208898 
L 52.059151 40.451989 
L 51.097016 41.758733 
L 50.219697 43.123868 
L 49.430726 44.541898 
L 48.733281 46.007113 
L 48.13017 47.513612 
L 47.623821 49.05533 
L 47.216273 50.626059 
L 46.909167 52.219473 
L 46.703741 53.829158 
L 46.60082 55.44863 
L 46.60082 57.07137 
L 46.703741 58.690842 
L 46.909167 60.300527 
L 47.216273 61.893941 
L 47.623821 63.46467 
L 48.13017 65.006388 
L 48.733281 66.512887 
L 49.430726 67.978102 
L 50.219697 69.396132 
L 51.097016 70.761267 
L 52.059151 72.068011 
L 53.102228 73.311102 
L 54.222047 74.485534 
L 55.414098 75.586578 
L 56.673581 76.609801 
L 57.995426 77.551082 
L 59.374309 78.406631 
L 60.804678 79.173004 
L 62.280774 79.847115 
L 63.796653 80.426248 
L 65.346211 80.908073 
L 66.923208 81.290648 
L 68.521294 81.572434 
L 70.134035 81.752295 
L 71.754937 81.829508 
L 73.377472 81.803762 
L 74.995108 81.67516 
L 76.60133 81.44422 
L 78.189672 81.111872 
L 79.753737 80.679455 
L 81.287227 80.148708 
L 82.783968 79.521771 
L 84.237932 78.801166 
L 85.643266 77.989797 
L 86.99431 77.090929 
L 88.285624 76.108182 
L 89.512009 75.045513 
L 90.668526 73.907202 
L 91.750518 72.697832 
L 92.753629 71.422273 
L 93.67382 70.08566 
L 94.507385 68.693377 
L 95.250967 67.251028 
L 95.901573 65.764423 
L 96.456582 64.239546 
L 96.913761 62.682539 
L 97.271268 61.09967 
L 97.527663 59.497314 
L 97.681914 57.881923 
L 97.7334 56.26 
z
" clip-path="url(#p206f25b1d3)" style="fill: #00bfff; stroke: #00bfff; stroke-linejoin: miter"/>
   </g>
   <g id="matplotlib.axis_1">
    <g id="xtick_1">
     <g id="line2d_1">
      <defs>
       <path id="m1ff299abb7" d="M 0 0 
L 0 3.5 
" style="stroke: #000000; stroke-width: 0.8"/>
      </defs>
      <g>
       <use xlink:href="#m1ff299abb7" x="21.015218" y="112.52" style="stroke: #000000; stroke-width: 0.8"/>
      </g>
     </g>
     <g id="text_1">
      <!-- −2 -->
      <g transform="translate(16.047249 127.02) scale(0.1 -0.1)">
       <defs>
        <path id="RobotoCondensed-Regular-2212" d="M 2700 2509 
L 2700 2034 
L 506 2034 
L 506 2509 
L 2700 2509 
z
" transform="scale(0.015625)"/>
        <path id="RobotoCondensed-Regular-32" d="M 2909 475 
L 2909 0 
L 366 0 
L 366 416 
L 1628 2088 
Q 1966 2541 2077 2802 
Q 2188 3063 2188 3328 
Q 2188 3663 2027 3900 
Q 1866 4138 1575 4138 
Q 1194 4138 1022 3878 
Q 850 3619 850 3213 
L 297 3213 
Q 297 3788 617 4200 
Q 938 4613 1575 4613 
Q 2125 4613 2433 4278 
Q 2741 3944 2741 3397 
Q 2741 2997 2541 2594 
Q 2341 2191 2047 1809 
L 1028 475 
L 2909 475 
z
" transform="scale(0.015625)"/>
       </defs>
       <use xlink:href="#RobotoCondensed-Regular-2212"/>
       <use xlink:href="#RobotoCondensed-Regular-32" transform="translate(50 0)"/>
      </g>
     </g>
    </g>
    <g id="xtick_2">
     <g id="line2d_2">
      <g>
       <use xlink:href="#m1ff299abb7" x="46.587945" y="112.52" style="stroke: #000000; stroke-width: 0.8"/>
      </g>
     </g>
     <g id="text_2">
      <!-- −1 -->
      <g transform="translate(41.619977 127.02) scale(0.1 -0.1)">
       <defs>
        <path id="RobotoCondensed-Regular-31" d="M 2013 4575 
L 2013 0 
L 1459 0 
L 1459 3853 
L 503 3428 
L 503 3950 
L 1928 4575 
L 2013 4575 
z
" transform="scale(0.015625)"/>
       </defs>
       <use xlink:href="#RobotoCondensed-Regular-2212"/>
       <use xlink:href="#RobotoCondensed-Regular-31" transform="translate(50 0)"/>
      </g>
     </g>
    </g>
    <g id="xtick_3">
     <g id="line2d_3">
      <g>
       <use xlink:href="#m1ff299abb7" x="72.160673" y="112.52" style="stroke: #000000; stroke-width: 0.8"/>
      </g>
     </g>
     <g id="text_3">
      <!-- 0 -->
      <g transform="translate(69.692704 127.02) scale(0.1 -0.1)">
       <defs>
        <path id="RobotoCondensed-Regular-30" d="M 2797 1944 
Q 2797 825 2467 381 
Q 2138 -63 1581 -63 
Q 1038 -63 703 370 
Q 369 803 359 1878 
L 359 2638 
Q 359 3753 695 4183 
Q 1031 4613 1578 4613 
Q 2131 4613 2461 4189 
Q 2791 3766 2797 2681 
L 2797 1944 
z
M 2247 2734 
Q 2247 3503 2073 3822 
Q 1900 4141 1578 4141 
Q 1266 4141 1092 3833 
Q 919 3525 913 2791 
L 913 1850 
Q 913 1088 1089 750 
Q 1266 413 1581 413 
Q 1903 413 2072 738 
Q 2241 1063 2247 1794 
L 2247 2734 
z
" transform="scale(0.015625)"/>
       </defs>
       <use xlink:href="#RobotoCondensed-Regular-30"/>
      </g>
     </g>
    </g>
    <g id="xtick_4">
     <g id="line2d_4">
      <g>
       <use xlink:href="#m1ff299abb7" x="97.7334" y="112.52" style="stroke: #000000; stroke-width: 0.8"/>
      </g>
     </g>
     <g id="text_4">
      <!-- 1 -->
      <g transform="translate(95.265431 127.02) scale(0.1 -0.1)">
       <use xlink:href="#RobotoCondensed-Regular-31"/>
      </g>
     </g>
    </g>
    <g id="xtick_5">
     <g id="line2d_5">
      <g>
       <use xlink:href="#m1ff299abb7" x="123.306127" y="112.52" style="stroke: #000000; stroke-width: 0.8"/>
      </g>
     </g>
     <g id="text_5">
      <!-- 2 -->
      <g transform="translate(120.838159 127.02) scale(0.1 -0.1)">
       <use xlink:href="#RobotoCondensed-Regular-32"/>
      </g>
     </g>
    </g>
   </g>
   <g id="matplotlib.axis_2">
    <g id="ytick_1">
     <g id="line2d_6">
      <defs>
       <path id="m08e40ad69f" d="M 0 0 
L -3.5 0 
" style="stroke: #000000; stroke-width: 0.8"/>
      </defs>
      <g>
       <use xlink:href="#m08e40ad69f" x="16.99" y="107.405455" style="stroke: #000000; stroke-width: 0.8"/>
      </g>
     </g>
     <g id="text_6">
      <!-- −2 -->
      <g transform="translate(0.054063 111.155455) scale(0.1 -0.1)">
       <use xlink:href="#RobotoCondensed-Regular-2212"/>
       <use xlink:href="#RobotoCondensed-Regular-32" transform="translate(50 0)"/>
      </g>
     </g>
    </g>
    <g id="ytick_2">
     <g id="line2d_7">
      <g>
       <use xlink:href="#m08e40ad69f" x="16.99" y="81.832727" style="stroke: #000000; stroke-width: 0.8"/>
      </g>
     </g>
     <g id="text_7">
      <!-- −1 -->
      <g transform="translate(0.054063 85.582727) scale(0.1 -0.1)">
       <use xlink:href="#RobotoCondensed-Regular-2212"/>
       <use xlink:href="#RobotoCondensed-Regular-31" transform="translate(50 0)"/>
      </g>
     </g>
    </g>
    <g id="ytick_3">
     <g id="line2d_8">
      <g>
       <use xlink:href="#m08e40ad69f" x="16.99" y="56.26" style="stroke: #000000; stroke-width: 0.8"/>
      </g>
     </g>
     <g id="text_8">
      <!-- 0 -->
      <g transform="translate(5.054063 60.01) scale(0.1 -0.1)">
       <use xlink:href="#RobotoCondensed-Regular-30"/>
      </g>
     </g>
    </g>
    <g id="ytick_4">
     <g id="line2d_9">
      <g>
       <use xlink:href="#m08e40ad69f" x="16.99" y="30.687273" style="stroke: #000000; stroke-width: 0.8"/>
      </g>
     </g>
     <g id="text_9">
      <!-- 1 -->
      <g transform="translate(5.054063 34.437273) scale(0.1 -0.1)">
       <use xlink:href="#RobotoCondensed-Regular-31"/>
      </g>
     </g>
    </g>
    <g id="ytick_5">
     <g id="line2d_10">
      <g>
       <use xlink:href="#m08e40ad69f" x="16.99" y="5.114545" style="stroke: #000000; stroke-width: 0.8"/>
      </g>
     </g>
     <g id="text_10">
      <!-- 2 -->
      <g transform="translate(5.054063 8.864545) scale(0.1 -0.1)">
       <use xlink:href="#RobotoCondensed-Regular-32"/>
      </g>
     </g>
    </g>
   </g>
   <g id="patch_12">
    <path d="M 16.99 112.52 
L 16.99 0 
" style="fill: none"/>
   </g>
   <g id="patch_13">
    <path d="M 178.4768 112.52 
L 178.4768 0 
" style="fill: none"/>
   </g>
   <g id="patch_14">
    <path d="M 16.99 112.52 
L 178.4768 112.52 
" style="fill: none"/>
   </g>
   <g id="patch_15">
    <path d="M 16.99 0 
L 178.4768 0 
" style="fill: none"/>
   </g>
   <g id="legend_1">
    <g id="patch_16">
     <path d="M 127.844424 16.5 
L 147.844424 16.5 
L 147.844424 9.5 
L 127.844424 9.5 
z
" style="fill: #4169e1; stroke: #4169e1; stroke-linejoin: miter"/>
    </g>
    <g id="text_11">
     <!-- A -->
     <g transform="translate(155.844424 16.5) scale(0.1 -0.1)">
      <defs>
       <path id="RobotoCondensed-Regular-41" d="M 134 0 
L 1600 4550 
L 2094 4550 
L 3559 0 
L 2972 0 
L 2616 1191 
L 1078 1191 
L 722 0 
L 134 0 
z
M 1228 1684 
L 2466 1684 
L 1847 3750 
L 1228 1684 
z
" transform="scale(0.015625)"/>
      </defs>
      <use xlink:href="#RobotoCondensed-Regular-41"/>
     </g>
    </g>
    <g id="patch_17">
     <path d="M 127.844424 31.03125 
L 147.844424 31.03125 
L 147.844424 24.03125 
L 127.844424 24.03125 
z
" style="fill: #40e0d0; stroke: #40e0d0; stroke-linejoin: miter"/>
    </g>
    <g id="text_12">
     <!-- A $⊖$ B $⊕$ B -->
     <g transform="translate(155.844424 31.03125) scale(0.1 -0.1)">
      <defs>
       <path id="RobotoCondensed-Regular-20" transform="scale(0.015625)"/>
       <path id="DejaVuSans-2296" d="M 1303 2272 
L 4059 2272 
L 4059 1741 
L 1303 1741 
L 1303 2272 
z
M 3306 3522 
Q 3016 3644 2681 3644 
Q 2347 3644 2056 3522 
Q 1769 3400 1531 3163 
Q 1291 2922 1172 2634 
Q 1053 2347 1053 2006 
Q 1053 1675 1172 1387 
Q 1291 1100 1531 859 
Q 1769 622 2056 500 
Q 2347 378 2681 378 
Q 3016 378 3306 500 
Q 3594 622 3831 859 
Q 4072 1100 4190 1387 
Q 4309 1675 4309 2006 
Q 4309 2347 4190 2634 
Q 4072 2922 3831 3163 
Q 3594 3400 3306 3522 
z
M 1878 3956 
Q 2250 4113 2681 4113 
Q 3113 4113 3484 3956 
Q 3856 3800 4163 3494 
Q 4472 3184 4625 2813 
Q 4778 2444 4778 2006 
Q 4778 1578 4625 1206 
Q 4472 838 4163 528 
Q 3856 222 3484 65 
Q 3113 -91 2681 -91 
Q 2250 -91 1878 65 
Q 1506 222 1200 528 
Q 891 838 738 1206 
Q 584 1578 584 2006 
Q 584 2444 738 2813 
Q 891 3184 1200 3494 
Q 1506 3800 1878 3956 
z
" transform="scale(0.015625)"/>
       <path id="RobotoCondensed-Regular-42" d="M 3125 1313 
Q 3125 675 2776 337 
Q 2428 0 1847 0 
L 491 0 
L 491 4550 
L 1791 4550 
Q 2375 4550 2706 4261 
Q 3038 3972 3038 3338 
Q 3038 3025 2880 2779 
Q 2722 2534 2453 2400 
Q 2781 2297 2953 1998 
Q 3125 1700 3125 1313 
z
M 1066 4056 
L 1066 2613 
L 1797 2613 
Q 2088 2613 2275 2806 
Q 2463 3000 2463 3344 
Q 2463 4041 1819 4056 
L 1066 4056 
z
M 2550 1306 
Q 2550 2106 1906 2128 
L 1066 2128 
L 1066 491 
L 1847 491 
Q 2181 491 2365 711 
Q 2550 931 2550 1306 
z
" transform="scale(0.015625)"/>
       <path id="DejaVuSans-2295" d="M 3306 3522 
Q 3016 3644 2681 3644 
Q 2347 3644 2056 3522 
Q 1769 3400 1531 3163 
Q 1291 2922 1172 2634 
Q 1053 2347 1053 2006 
Q 1053 1675 1172 1387 
Q 1291 1100 1531 859 
Q 1769 622 2056 500 
Q 2347 378 2681 378 
Q 3016 378 3306 500 
Q 3594 622 3831 859 
Q 4072 1100 4190 1387 
Q 4309 1675 4309 2006 
Q 4309 2347 4190 2634 
Q 4072 2922 3831 3163 
Q 3594 3400 3306 3522 
z
M 1878 3956 
Q 2250 4113 2681 4113 
Q 3113 4113 3484 3956 
Q 3856 3800 4163 3494 
Q 4472 3184 4625 2813 
Q 4778 2444 4778 2006 
Q 4778 1578 4625 1206 
Q 4472 838 4163 528 
Q 3856 222 3484 65 
Q 3113 -91 2681 -91 
Q 2250 -91 1878 65 
Q 1506 222 1200 528 
Q 891 838 738 1206 
Q 584 1578 584 2006 
Q 584 2444 738 2813 
Q 891 3184 1200 3494 
Q 1506 3800 1878 3956 
z
M 2947 3388 
L 2947 2272 
L 4059 2272 
L 4059 1741 
L 2947 1741 
L 2947 625 
L 2416 625 
L 2416 1741 
L 1303 1741 
L 1303 2272 
L 2416 2272 
L 2416 3388 
L 2947 3388 
z
" transform="scale(0.015625)"/>
      </defs>
      <use xlink:href="#RobotoCondensed-Regular-41" transform="translate(0 0.90625)"/>
      <use xlink:href="#RobotoCondensed-Regular-20" transform="translate(57.666016 0.90625)"/>
      <use xlink:href="#DejaVuSans-2296" transform="translate(80.615234 0.90625)"/>
      <use xlink:href="#RobotoCondensed-Regular-20" transform="translate(164.404297 0.90625)"/>
      <use xlink:href="#RobotoCondensed-Regular-42" transform="translate(187.353516 0.90625)"/>
      <use xlink:href="#RobotoCondensed-Regular-20" transform="translate(241.943359 0.90625)"/>
      <use xlink:href="#DejaVuSans-2295" transform="translate(264.892578 0.90625)"/>
      <use xlink:href="#RobotoCondensed-Regular-20" transform="translate(348.681641 0.90625)"/>
      <use xlink:href="#RobotoCondensed-Regular-42" transform="translate(371.630859 0.90625)"/>
     </g>
    </g>
    <g id="patch_18">
     <path d="M 127.844424 45.5625 
L 147.844424 45.5625 
L 147.844424 38.5625 
L 127.844424 38.5625 
z
" style="fill: #1e90ff; stroke: #1e90ff; stroke-linejoin: miter"/>
    </g>
    <g id="text_13">
     <!-- A $⊖$ B -->
     <g transform="translate(155.844424 45.5625) scale(0.1 -0.1)">
      <use xlink:href="#RobotoCondensed-Regular-41" transform="translate(0 0.90625)"/>
      <use xlink:href="#RobotoCondensed-Regular-20" transform="translate(57.666016 0.90625)"/>
      <use xlink:href="#DejaVuSans-2296" transform="translate(80.615234 0.90625)"/>
      <use xlink:href="#RobotoCondensed-Regular-20" transform="translate(164.404297 0.90625)"/>
      <use xlink:href="#RobotoCondensed-Regular-42" transform="translate(187.353516 0.90625)"/>
     </g>
    </g>
    <g id="patch_19">
     <path d="M 127.844424 60.09375 
L 147.844424 60.09375 
L 147.844424 53.09375 
L 127.844424 53.09375 
z
" style="fill: #00bfff; stroke: #00bfff; stroke-linejoin: miter"/>
    </g>
    <g id="text_14">
     <!-- B -->
     <g transform="translate(155.844424 60.09375) scale(0.1 -0.1)">
      <use xlink:href="#RobotoCondensed-Regular-42"/>
     </g>
    </g>
   </g>
  </g>
 </g>
 <defs>
  <clipPath id="p206f25b1d3">
   <rect x="16.99" y="0" width="161.4868" height="112.52"/>
  </clipPath>
 </defs>
</svg>
